<svg xmlns="http://www.w3.org/2000/svg" xmlns:xlink="http://www.w3.org/1999/xlink" xmlns:inkscape="http://www.inkscape.org/namespaces/inkscape" version="1.1" width="628.595" height="128.556" viewBox="0 0 628.595 128.556">
<defs>
<clipPath id="clip_1">
<path transform="matrix(1,0,0,-1,0,128.556)" d="M0 128.556H628.595V0H0Z"/>
</clipPath>
</defs>
<g clip-path="url(#clip_1)">
<path transform="matrix(1,0,0,-1,26.8516,27.2191)" d="M0 0V-41.381H17.472C35.128-41.381 45.795-34.576 45.795-20.231 45.795-6.621 35.128 0 17.472 0ZM-26.852-98.946V24.828H16.736C51.864 24.828 73.382 8.46 73.382-20.231 73.382-50.025 52.231-66.21 18.208-66.21H0V-98.763Z"/>
<path transform="matrix(1,0,0,-1,160.2256,76.8763)" d="M0 0H33.578C34.242 0 34.722 .635 34.54 1.274L20.925 49.105C20.189 51.68 19.086 52.783 16.879 52.783 14.855 52.783 13.568 51.68 12.832 49.105L-.961 1.277C-1.145 .638-.665 0 0 0M-10.157 57.014C-5.927 70.439 5.108 76.876 16.694 76.876 28.465 76.876 39.5 70.439 43.73 57.014L76.467-49.289H49.063L41.891-23.909-8.317-24.093-15.49-49.289H-42.894Z"/>
<path transform="matrix(1,0,0,-1,256.917,71.175098)" d="M0 0V68.784H26.852V.552C26.852-20.966 35.679-31.449 53.887-31.449 72.094-31.449 80.922-20.966 80.922 .552V68.784H107.773V0C107.773-35.68 90.669-57.014 53.887-57.014 16.92-57.014 0-35.68 0 0"/>
<path transform="matrix(1,0,0,-1,393.7432,101.5208)" d="M0 0 22.437 11.219C26.483 2.207 35.128-2.391 48.002-2.391 59.588-2.391 68.416 2.391 68.416 11.219 68.416 21.518 58.669 23.173 45.795 25.38 27.22 28.507 2.023 35.128 2.023 63.083 2.023 84.784 21.518 101.337 47.082 101.337 67.496 101.337 85.152 91.957 93.061 74.302L70.623 63.083C66.577 70.991 58.484 76.508 45.979 76.508 35.863 76.508 28.875 71.727 28.875 64.186 28.875 54.255 39.174 51.68 52.6 49.289 70.991 46.162 95.268 39.542 95.268 11.402 95.268-10.851 74.302-27.035 48.002-27.035 25.748-27.035 7.908-17.656 0 0"/>
<path transform="matrix(1,0,0,-1,550.7988,76.8763)" d="M0 0H36.231L22.254 49.105C21.519 51.68 20.415 52.783 18.208 52.783 16.185 52.783 14.897 51.68 14.162 49.105ZM-8.827 57.014C-4.598 70.439 6.437 76.876 18.024 76.876 29.795 76.876 40.829 70.439 45.06 57.014L77.796-49.289H50.393L43.22-23.909-6.988-24.093-14.161-49.289H-41.564Z"/>
</g>
</svg>
